<?xml version="1.0" encoding="UTF-8"?>
<svg version="1.1" xmlns="http://www.w3.org/2000/svg" width="1024" height="224">
<path d="M0 0 C337.92 0 675.84 0 1024 0 C1024 73.92 1024 147.84 1024 224 C686.08 224 348.16 224 0 224 C0 150.08 0 76.16 0 0 Z " fill="#FDFDFD" transform="translate(0,0)"/>
<path d="M0 0 C6.6 0 13.2 0 20 0 C20 13.2 20 26.4 20 40 C25.94 40 31.88 40 38 40 C38 44.62 38 49.24 38 54 C32.06 54 26.12 54 20 54 C20 80.4 20 106.8 20 134 C13.4 134 6.8 134 0 134 C0 120.47 0 106.94 0 93 C-4.29 93.99 -8.58 94.98 -13 96 C-17.58360838 96.28981386 -22.02659932 96.46796189 -26.60546875 96.46875 C-27.8507283 96.47636353 -29.09598785 96.48397705 -30.37898254 96.49182129 C-32.98985809 96.50254731 -35.60077628 96.50550627 -38.21166992 96.50097656 C-42.18806386 96.49999986 -46.1625533 96.54180472 -50.13867188 96.5859375 C-52.69010019 96.59114243 -55.24153513 96.59383273 -57.79296875 96.59375 C-58.96925339 96.61014526 -60.14553802 96.62654053 -61.35746765 96.64343262 C-69.48314345 96.57582992 -76.53394029 95.47196217 -82.48936462 89.50866699 C-86.85707668 82.74967383 -85.48972273 73.10476308 -85.390625 65.375 C-85.38315524 63.66008161 -85.37746578 61.94515462 -85.37347412 60.23022461 C-85.35827556 55.73870864 -85.31904446 51.2477184 -85.2746582 46.75640869 C-85.23358005 42.16450103 -85.21543643 37.57250759 -85.1953125 32.98046875 C-85.1525437 23.98671222 -85.08224203 14.99348228 -85 6 C-78.4 6 -71.8 6 -65 6 C-64.98018066 8.23120605 -64.96036133 10.46241211 -64.93994141 12.76123047 C-64.87312608 20.12145039 -64.79548555 27.48152716 -64.71247292 34.84158134 C-64.66246165 39.30532581 -64.61613224 43.76904606 -64.578125 48.23291016 C-64.54133294 52.53832281 -64.49498999 56.84353509 -64.44193649 61.14877701 C-64.42336009 62.79382956 -64.40826421 64.43892511 -64.39665604 66.0840416 C-64.37984872 68.38289799 -64.35082821 70.68129224 -64.31884766 72.97998047 C-64.30552399 74.2901413 -64.29220032 75.60030212 -64.2784729 76.95016479 C-64.31805723 80.10852996 -64.31805723 80.10852996 -62 82 C-59.85592804 82.31263565 -59.85592804 82.31263565 -57.35766602 82.2746582 C-56.39228409 82.28419022 -55.42690216 82.29372223 -54.43226624 82.30354309 C-52.85897804 82.30217598 -52.85897804 82.30217598 -51.25390625 82.30078125 C-50.17302231 82.30506638 -49.09213837 82.3093515 -47.97850037 82.31376648 C-45.68269552 82.31952131 -43.38687243 82.32000161 -41.09106445 82.31567383 C-37.60790953 82.31254084 -34.12562624 82.33586472 -30.64257812 82.36132812 C-28.40885523 82.36360395 -26.17513007 82.3643033 -23.94140625 82.36328125 C-22.91076553 82.372491 -21.88012482 82.38170074 -20.81825256 82.39118958 C-19.82450119 82.38496078 -18.83074982 82.37873199 -17.80688477 82.37231445 C-16.52020653 82.37325859 -16.52020653 82.37325859 -15.20753479 82.3742218 C-10.37275541 81.81015002 -5.6960585 80.28074323 -1 79 C-0.67 52.93 -0.34 26.86 0 0 Z " fill="#241C1C" transform="translate(467,58)"/>
<path d="M0 0 C6.27 0 12.54 0 19 0 C19 5.28 19 10.56 19 16 C28.57 16 38.14 16 48 16 C48 20.29 48 24.58 48 29 C43.38 29.33 38.76 29.66 34 30 C34.928125 31.44375 35.85625 32.8875 36.8125 34.375 C42.12583136 42.64018211 43.5452986 51.2019853 43.4375 60.875 C43.42920166 61.83954102 43.42090332 62.80408203 43.41235352 63.79785156 C43.13167673 75.65220047 39.88239813 84.99383838 32 94 C24.09280393 101.49519787 16.27226699 103.66069872 5.4765625 103.41796875 C-2.7916638 102.42392357 -9.90371094 97.67289279 -15.33203125 91.48046875 C-24.16486673 80.08584412 -24.84235336 66.82083472 -24 53 C-22.80136031 44.48762664 -19.13625305 36.13625305 -13 30 C-17.95 29.67 -22.9 29.34 -28 29 C-28 24.71 -28 20.42 -28 16 C-18.76 16 -9.52 16 0 16 C0 10.72 0 5.44 0 0 Z " fill="#201818" transform="translate(274,58)"/>
<path d="M0 0 C0.33 0.33 0.66 0.66 1 1 C0.9375 4.28515625 0.9375 4.28515625 0 8 C-2.05496839 9.90147228 -3.62545032 11.0815334 -6 12.4375 C-6.630271 12.81455078 -7.26054199 13.19160156 -7.90991211 13.58007812 C-9.9213161 14.75719679 -11.95389683 15.88443452 -14 17 C-14.61375488 17.3417627 -15.22750977 17.68352539 -15.85986328 18.03564453 C-48.90376167 36.06839846 -89.02527765 40.2200861 -125.89013672 43.68945312 C-130.98050665 44.1977708 -136.05139195 44.84776804 -141.125 45.5 C-143.07026395 45.74647721 -145.01557661 45.99257028 -146.9609375 46.23828125 C-148.42418457 46.42318115 -148.42418457 46.42318115 -149.91699219 46.61181641 C-155.52633861 47.318093 -161.1368026 48.01246982 -166.75 48.6875 C-167.79687988 48.81898437 -168.84375977 48.95046875 -169.92236328 49.0859375 C-184.52609946 50.8185447 -195.78902669 50.69180845 -207.9375 41.5 C-215.3578216 35.29853989 -221.39324281 29.5529777 -222.3125 19.625 C-221.93947425 15.29790125 -220.71715334 13.33821697 -218 10 C-210.63835653 5.09223769 -199.26602085 7.99852912 -191.07006836 9.59057617 C-188.87757368 10.03439901 -186.68568655 10.48123263 -184.49438477 10.9309082 C-175.98771143 12.66518374 -167.47314283 14.05139204 -158.875 15.25 C-157.12473511 15.49411621 -157.12473511 15.49411621 -155.33911133 15.74316406 C-152.22709893 16.1708416 -149.11468471 16.59224863 -146 17 C-144.77619629 17.17724609 -143.55239258 17.35449219 -142.29150391 17.53710938 C-137.31403478 18.15208796 -132.35375481 18.18083531 -127.34375 18.203125 C-125.81470032 18.21167511 -125.81470032 18.21167511 -124.25476074 18.22039795 C-122.09644596 18.22981339 -119.93811702 18.23636813 -117.77978516 18.24023438 C-114.56515256 18.24980601 -111.35119798 18.28080586 -108.13671875 18.3125 C-88.46348553 18.41207304 -69.19049728 16.36952861 -50 12 C-49.23187988 11.83274414 -48.46375977 11.66548828 -47.67236328 11.49316406 C-36.55623726 9.06900597 -25.78854247 6.17201404 -15.10302734 2.23535156 C-9.82406477 0.3520234 -5.61388231 -0.42500578 0 0 Z " fill="#038377" transform="translate(229,42)"/>
<path d="M0 0 C6.27 0 12.54 0 19 0 C19 8.91 19 17.82 19 27 C24.94 27 30.88 27 37 27 C37 30.96 37 34.92 37 39 C31.06 39 25.12 39 19 39 C19 50.88 19 62.76 19 75 C12.73 75 6.46 75 0 75 C0 72.36 0 69.72 0 67 C-0.69521759 67.21153214 -1.39043518 67.42306427 -2.10671997 67.64100647 C-10.41408269 69.96640776 -18.14551269 70.45304717 -26.7421875 70.43359375 C-28.123141 70.43816874 -29.50409224 70.44347816 -30.88504028 70.44947815 C-33.75418461 70.45833418 -36.62304937 70.45606793 -39.4921875 70.44604492 C-43.15729039 70.43448373 -46.82143991 70.45491206 -50.48641777 70.48396206 C-53.32785074 70.5023402 -56.16905488 70.50202988 -59.01053238 70.49632454 C-61.01461145 70.49609827 -63.01866922 70.51294324 -65.02267456 70.53013611 C-75.12120847 70.45262023 -75.12120847 70.45262023 -78.68408203 68.40649414 C-84.93431625 61.91181158 -84.40926741 55.06757793 -84.29296875 46.50390625 C-84.28994751 45.44941284 -84.28692627 44.39491943 -84.28381348 43.30847168 C-84.26819175 39.39304733 -84.22630805 35.47776319 -84.1875 31.5625 C-84.125625 22.796875 -84.06375 14.03125 -84 5 C-64.53 5 -45.06 5 -25 5 C-25 8.96 -25 12.92 -25 17 C-38.2 17 -51.4 17 -65 17 C-65 20.96 -65 24.92 -65 29 C-51.8 29 -38.6 29 -25 29 C-25 33.62 -25 38.24 -25 43 C-38.2 43 -51.4 43 -65 43 C-65.48589129 50.68341329 -65.48589129 50.68341329 -63 57 C-61.42676589 57.10899792 -59.84868768 57.14905341 -58.27172852 57.16113281 C-57.26300186 57.17074036 -56.25427521 57.1803479 -55.21498108 57.19024658 C-53.56362404 57.1966214 -53.56362404 57.1966214 -51.87890625 57.203125 C-50.7498436 57.20882507 -49.62078094 57.21452515 -48.45750427 57.22039795 C-46.05737246 57.22987045 -43.65722751 57.23639081 -41.25708008 57.24023438 C-37.60930023 57.2498763 -33.96209903 57.28085229 -30.31445312 57.3125 C-27.98177418 57.31903622 -25.64909119 57.32428425 -23.31640625 57.328125 C-22.23371964 57.3404718 -21.15103302 57.3528186 -20.03553772 57.36553955 C-18.99844162 57.36253845 -17.96134552 57.35953735 -16.89282227 57.35644531 C-15.54499413 57.36191376 -15.54499413 57.36191376 -14.16993713 57.36749268 C-9.66886733 56.84568101 -5.34011761 55.30203528 -1 54 C-0.67 36.18 -0.34 18.36 0 0 Z " fill="#211919" transform="translate(980,58)"/>
<path d="M0 0 C8.37495095 5.97353132 14.2220077 13.50140375 16.890625 23.47265625 C20.77608597 49.62756483 12.4609949 78.58925458 -3.140625 99.671875 C-9.5844994 107.98092313 -9.5844994 107.98092313 -13.87109375 109.26953125 C-15.26521484 109.29080078 -15.26521484 109.29080078 -16.6875 109.3125 C-18.6875 107.3125 -18.6875 107.3125 -18.74755859 105.45385742 C-18.04478885 100.00230368 -16.85335926 94.89420362 -15.3125 89.625 C-11.42253085 75.47722583 -9.47325336 61.11002269 -9.3125 46.4375 C-9.29856201 45.63578369 -9.28462402 44.83406738 -9.27026367 44.00805664 C-9.32282855 37.54121124 -10.51094306 31.87315523 -14.8125 26.8125 C-18.83882133 24.71181061 -22.23676957 24.52090003 -26.6875 25.3125 C-29.97130785 27.12907455 -31.28907834 28.41080888 -32.80078125 31.83203125 C-34.16470252 37.18557243 -33.97448967 42.55351036 -33.90234375 48.05664062 C-34.02653344 54.42375066 -34.02653344 54.42375066 -35.94921875 57.0090332 C-39.63932448 60.20854352 -42.82930494 61.39925348 -47.6875 61.3125 C-53.14447395 58.80229198 -56.26458391 54.68505307 -58.6875 49.3125 C-62.1608701 37.71022513 -62.60723416 24.8902662 -57.16796875 13.859375 C-51.00763014 3.26164208 -44.09770073 -2.69688986 -32.12109375 -5.9921875 C-20.22448859 -8.40128388 -10.27032805 -6.30264576 0 0 Z " fill="#038377" transform="translate(134.6875,101.6875)"/>
<path d="M0 0 C22.44 0 44.88 0 68 0 C68 4.29 68 8.58 68 13 C60.08 13 52.16 13 44 13 C44.8440066 42.80715165 44.8440066 42.80715165 59.609375 67.93359375 C63.15479315 70.99817905 66.77467468 72.98794032 71 75 C71 79.95 71 84.9 71 90 C56.33436444 87.55572741 43.87230523 78.54471128 35.1796875 66.6875 C34.79039062 66.130625 34.40109375 65.57375 34 65 C33.1646875 66.08667969 33.1646875 66.08667969 32.3125 67.1953125 C23.77550589 78.01076112 13.22847488 87.20560777 -1 89 C-1.52948404 84.22810676 -1.78229217 79.75229186 -1 75 C1.02364911 72.72063924 2.92294596 71.66732741 5.6171875 70.26953125 C13.98876028 65.80926707 18.02019612 55.4600354 20.75 46.875 C23.05818522 39.1184241 23.22437189 31.02912053 23.5625 23 C23.706875 19.7 23.85125 16.4 24 13 C16.08 13 8.16 13 0 13 C0 8.71 0 4.42 0 0 Z " fill="#211919" transform="translate(512,66)"/>
<path d="M0 0 C6.6 0 13.2 0 20 0 C20 13.53 20 27.06 20 41 C25.94 41 31.88 41 38 41 C38 45.29 38 49.58 38 54 C32.06 54 26.12 54 20 54 C20 80.4 20 106.8 20 134 C13.4 134 6.8 134 0 134 C0 89.78 0 45.56 0 0 Z " fill="#1F1817" transform="translate(336,58)"/>
<path d="M0 0 C6.27 0 12.54 0 19 0 C19 12.87 19 25.74 19 39 C24.94 39 30.88 39 37 39 C37 43.29 37 47.58 37 52 C31.06 52 25.12 52 19 52 C19 78.4 19 104.8 19 132 C12.73 132 6.46 132 0 132 C0 88.44 0 44.88 0 0 Z " fill="#1E1616" transform="translate(596,59)"/>
<path d="M0 0 C6.6 0 13.2 0 20 0 C20.15855469 1.94261719 20.31710937 3.88523437 20.48046875 5.88671875 C20.65464673 7.81661078 20.82897292 9.74649201 21.00708008 11.67602539 C21.18256611 13.63249278 21.33863701 15.59067118 21.49414062 17.54882812 C22.5933199 29.22389447 25.357336 41.47360502 34 50 C38.18326865 53.32329356 41.78878157 55.69719539 47 57 C47 61.95 47 66.9 47 72 C40.87841498 71.12548785 37.44108155 70.17135582 32.1875 67.5 C31.49043945 67.14905273 30.79337891 66.79810547 30.07519531 66.43652344 C23.85664266 63.17041642 18.8881541 59.03972477 14 54 C13.25234375 53.25234375 12.5046875 52.5046875 11.734375 51.734375 C11.16203125 51.16203125 10.5896875 50.5896875 10 50 C9.6596875 50.49628906 9.319375 50.99257812 8.96875 51.50390625 C1.25315791 62.31804729 -9.89917425 70.54411296 -22.98828125 73.7265625 C-23.65214844 73.81679687 -24.31601562 73.90703125 -25 74 C-25.58960956 68.85074315 -25.88543738 64.12905801 -25 59 C-22.70468812 56.6246191 -20.59683806 55.60137592 -17.60546875 54.234375 C-10.51648226 50.87587465 -6.72767296 43.01817633 -4 36 C-0.30571636 24.30398996 -0.31872622 12.15555862 0 0 Z " fill="#201918" transform="translate(664,63)"/>
<path d="M0 0 C6.6 0 13.2 0 20 0 C20.1546875 4.516875 20.1546875 4.516875 20.3125 9.125 C20.98984582 24.21312352 22.96559568 39.59758672 33.6953125 51.015625 C37.45273736 54.25083149 41.45907498 56.0448795 46 58 C46 62.95 46 67.9 46 73 C39.87889066 72.12555581 36.44061579 71.17175557 31.1875 68.5 C30.14190918 67.97249146 30.14190918 67.97249146 29.07519531 67.43432617 C20.8597126 63.11273895 14.67727052 57.30117447 9 50 C8.443125 50.886875 7.88625 51.77375 7.3125 52.6875 C-0.0384357 63.61180722 -10.93529032 69.62594191 -23 74 C-23.66 74 -24.32 74 -25 74 C-25 69.05 -25 64.1 -25 59 C-23.845 58.525625 -22.69 58.05125 -21.5 57.5625 C-11.22992997 52.31859498 -6.48428489 42.56784758 -3 32 C-0.41493328 21.62076226 -0.45892195 10.63169174 0 0 Z " fill="#201918" transform="translate(791,63)"/>
<path d="M0 0 C6.27 0 12.54 0 19 0 C19 10.56 19 21.12 19 32 C24.94 32 30.88 32 37 32 C37 36.29 37 40.58 37 45 C31.06 45 25.12 45 19 45 C19 61.83 19 78.66 19 96 C12.73 96 6.46 96 0 96 C0 64.32 0 32.64 0 0 Z " fill="#1F1717" transform="translate(725,58)"/>
<path d="M0 0 C28.38 0 56.76 0 86 0 C86 17.16 86 34.32 86 52 C79.73 52 73.46 52 67 52 C67 39.13 67 26.26 67 13 C44.89 13 22.78 13 0 13 C0 8.71 0 4.42 0 0 Z " fill="#201818" transform="translate(913,141)"/>
<path d="M0 0 C6.93 0 13.86 0 21 0 C21.06058594 2.51496094 21.12117187 5.02992188 21.18359375 7.62109375 C21.24533703 10.04698842 21.30874378 12.47283426 21.37231445 14.89868164 C21.41572439 16.58939299 21.45739489 18.28014991 21.49731445 19.97094727 C21.55487094 22.39613606 21.61860649 24.82109415 21.68359375 27.24609375 C21.70030624 28.00651474 21.71701874 28.76693573 21.73423767 29.55039978 C21.52091268 33.07082031 21.52091268 33.07082031 23 36 C24.9935143 36.12369325 26.9913647 36.1779639 28.98852539 36.20532227 C30.26977798 36.22526749 31.55103058 36.24521271 32.87110901 36.26576233 C34.27995684 36.28274797 35.68880595 36.29962673 37.09765625 36.31640625 C38.53112905 36.33696915 39.96459569 36.35796544 41.39805603 36.37937927 C45.1775312 36.43466859 48.9570617 36.48404745 52.7366333 36.53222656 C56.59074855 36.58239165 60.44478309 36.63810371 64.29882812 36.69335938 C71.86581909 36.80102482 79.43287737 36.90193862 87 37 C87 41.29 87 45.58 87 50 C77.3248751 50.06958365 67.64983667 50.12285368 57.97451591 50.15543652 C53.48161846 50.17107653 48.98889251 50.19228433 44.49609375 50.22631836 C40.15835006 50.25897129 35.8207711 50.27686553 31.48291397 50.28463173 C29.82994113 50.2901646 28.17697706 50.30096901 26.52407455 50.31719017 C24.20449254 50.33904371 21.88558676 50.34196368 19.56591797 50.34057617 C17.58735306 50.35056892 17.58735306 50.35056892 15.56881714 50.36076355 C11.07443731 49.90643699 7.70839914 48.5582548 4.35546875 45.5 C0.11637351 40.0558108 -0.14003181 36.09181294 -0.09765625 29.39453125 C-0.0962413 28.55532639 -0.09482635 27.71612152 -0.09336853 26.85148621 C-0.08777215 24.17178784 -0.07522035 21.4921731 -0.0625 18.8125 C-0.05748453 16.99544392 -0.05292171 15.17838652 -0.04882812 13.36132812 C-0.03865491 8.90749396 -0.0190788 4.45384057 0 0 Z " fill="#251D1C" transform="translate(785,142)"/>
<path d="M0 0 C6.27 0 12.54 0 19 0 C19 32.01 19 64.02 19 97 C12.73 97 6.46 97 0 97 C0 64.99 0 32.98 0 0 Z " fill="#1F1717" transform="translate(853,58)"/>
<path d="M0 0 C6.6 0 13.2 0 20 0 C20.06058594 2.29839844 20.12117187 4.59679687 20.18359375 6.96484375 C20.24534005 9.18224524 20.30874554 11.39959346 20.37231445 13.61694336 C20.41571985 15.16214289 20.45739071 16.70739214 20.49731445 18.25268555 C20.55488199 20.46939096 20.61861424 22.6858448 20.68359375 24.90234375 C20.70030624 25.5971434 20.71701874 26.29194305 20.73423767 27.00779724 C20.56502856 30.28762029 20.56502856 30.28762029 22 33 C23.96287766 33.12363297 25.93015158 33.1779544 27.89672852 33.20532227 C29.15796036 33.22526749 30.4191922 33.24521271 31.71864319 33.26576233 C33.10539627 33.28274795 34.49215066 33.29962671 35.87890625 33.31640625 C37.2899589 33.33696926 38.70100529 33.35796555 40.11204529 33.37937927 C43.8323359 33.43466755 47.55268273 33.48404686 51.27307129 33.53222656 C55.06686425 33.58239242 58.86057523 33.63810408 62.65429688 33.69335938 C70.10279721 33.80102354 77.55136593 33.90193772 85 34 C85 38.62 85 43.24 85 48 C75.45523111 48.06784391 65.91062303 48.12285536 56.36566734 48.15543652 C51.9333028 48.17107579 47.50111214 48.1922822 43.06884766 48.22631836 C38.78945843 48.25897398 34.5102362 48.27686609 30.23073196 48.28463173 C28.60008746 48.29016412 26.96945183 48.3009676 25.33887863 48.31719017 C23.05042701 48.33904734 20.76266072 48.34196353 18.47412109 48.34057617 C16.52220352 48.35056892 16.52220352 48.35056892 14.53085327 48.36076355 C9.44362267 47.84097776 6.19520096 46.25980642 2.6875 42.5625 C-0.41595698 37.84984311 -0.13469323 33.2369498 -0.09765625 27.734375 C-0.0962413 26.94097717 -0.09482635 26.14757935 -0.09336853 25.33013916 C-0.08778415 22.80338728 -0.07523454 20.27672496 -0.0625 17.75 C-0.05748298 16.03385545 -0.05292043 14.31770951 -0.04882812 12.6015625 C-0.03867198 8.40097965 -0.01909359 4.20058973 0 0 Z " fill="#271F1E" transform="translate(658,144)"/>
<path d="M0 0 C7.64602377 6.33019643 9.84730442 15.54789624 11 25 C11.89580216 35.65695674 10.29806453 46.50578161 4.28125 55.51171875 C1.73774997 58.46621117 -0.02415811 59.00272753 -3.875 59.4375 C-7.17568434 59.33473144 -7.94035797 59.04337602 -10.75 57 C-16.89254254 48.80994329 -19.39866672 39.98564032 -19.375 29.8125 C-19.37258301 28.71264771 -19.37258301 28.71264771 -19.37011719 27.59057617 C-19.14072898 17.24224455 -16.31910312 7.68593782 -9.1875 0.0625 C-5.68688558 -1.63779843 -3.67735122 -1.14124693 0 0 Z " fill="#FAFAFA" transform="translate(288,89)"/>
<path d="M0 0 C3.07613179 3.00289056 3.90966349 5.35612468 4.984375 9.44140625 C5.59389954 11.8304944 5.59389954 11.8304944 7.625 14.5625 C8.66948483 20.12639036 8.05391944 24.61932043 5.0625 29.4375 C1.46173606 34.17976487 -1.82591534 36.95840048 -7.76171875 37.96875 C-14.19880319 38.36305839 -18.48464151 36.70744588 -23.375 32.5625 C-28.34081443 27.21469985 -28.78267088 22.73483136 -28.72265625 15.64453125 C-28.05861546 9.75769772 -25.066967 6.21108323 -20.9375 2.1875 C-14.37362959 -1.9749544 -7.19140058 -3.06300395 0 0 Z " fill="#D10539" transform="translate(123.375,10.4375)"/>
<path d="M0 0 C6.6 0 13.2 0 20 0 C20 13.53 20 27.06 20 41 C19.67 41 19.34 41 19 41 C19 28.13 19 15.26 19 2 C13.39 2 7.78 2 2 2 C2 45.56 2 89.12 2 134 C1.34 134 0.68 134 0 134 C0 89.78 0 45.56 0 0 Z " fill="#322E2D" transform="translate(336,58)"/>
<path d="M0 0 C21.12 0 42.24 0 64 0 C64 4.29 64 8.58 64 13 C39.25 13 14.5 13 -11 13 C-11 12.34 -11 11.68 -11 11 C13.09 11 37.18 11 62 11 C62 7.7 62 4.4 62 1 C41.54 1 21.08 1 0 1 C0 0.67 0 0.34 0 0 Z " fill="#312D2C" transform="translate(808,179)"/>
<path d="M0 0 C5.94 0 11.88 0 18 0 C18 4.29 18 8.58 18 13 C12.06 13 6.12 13 0 13 C0 12.34 0 11.68 0 11 C5.28 11 10.56 11 16 11 C16 7.7 16 4.4 16 1 C10.72 1 5.44 1 0 1 C0 0.67 0 0.34 0 0 Z " fill="#282323" transform="translate(356,99)"/>
<path d="M0 0 C-1.05564703 2.55114699 -1.67726933 3.79951579 -4.0625 5.28125 C-6.27821664 6.8744369 -6.27821664 6.8744369 -6.390625 9.69921875 C-6.34421875 10.68535156 -6.2978125 11.67148438 -6.25 12.6875 C-6.21390625 13.68136719 -6.1778125 14.67523438 -6.140625 15.69921875 C-6.09421875 16.45847656 -6.0478125 17.21773437 -6 18 C-6.99 18.33 -7.98 18.66 -9 19 C-9 14.05 -9 9.1 -9 4 C-2.25 0 -2.25 0 0 0 Z " fill="#221D1C" transform="translate(648,118)"/>
<path d="M0 0 C-0.8125 1.9375 -0.8125 1.9375 -2 4 C-2.99 4.33 -3.98 4.66 -5 5 C-5.66 4.34 -6.32 3.68 -7 3 C-2.25 0 -2.25 0 0 0 Z M-7 5 C-6.01 5.495 -6.01 5.495 -5 6 C-5.99 6.495 -5.99 6.495 -7 7 C-7 6.34 -7 5.68 -7 5 Z " fill="#2E2827" transform="translate(648,118)"/>
</svg>
